# xmcd
#
# Track frame offsets:
#	150
#	11840
#	26260
#	37493
#	50973
#	64730
#	74433
#	84970
#	98480
#	111680
#	125575
#
# Disc length: 1824 seconds
#
# Revision: 0
# Processed by: cddbd v1.4PL0 Copyright (c) Steve Scherf et al.
# Submitted via: dBpowerAMP V4.0
#
DISCID=9f071e0b
DTITLE=Vicente Fernandez - ¡Arriba Huentitlan!
DYEAR=2003
DGENRE=Mariachi
TTITLE0=El Jaliciense
TTITLE1=Amor De La Calle
TTITLE2=Sueña Mi Amor
TTITLE3=Voy A Navegar
TTITLE4=Al Final Del Camino
TTITLE5=Te Voy A Hacer Que Me Quieras
TTITLE6=El Palenque
TTITLE7=Volver, Volver
TTITLE8=Con Golpes De Pecho
TTITLE9=Te Llevare Conmigo
TTITLE10=La Cruz De Tu Olvido
EXTD=
EXTT0=
EXTT1=
EXTT2=
EXTT3=
EXTT4=
EXTT5=
EXTT6=
EXTT7=
EXTT8=
EXTT9=
EXTT10=
PLAYORDER=
